<svg width="369" height="372" viewBox="0 0 369 372" fill="none" xmlns="http://www.w3.org/2000/svg">
<path d="M354 100C354 146.944 315.944 185 269 185C259.798 185 249.841 180.807 239.327 172.568C228.881 164.382 219.048 153.097 210.44 141.205C201.892 129.395 194.914 117.497 190.058 108.5C188.279 105.203 186.796 102.319 185.638 100C186.796 97.6811 188.279 94.7967 190.058 91.4998C194.914 82.5033 201.892 70.6047 210.44 58.7954C219.048 46.9033 228.881 35.6177 239.327 27.4318C249.841 19.1931 259.798 15 269 15C315.944 15 354 53.0558 354 100Z" stroke="white" stroke-width="30"/>
<path d="M354 272C354 318.944 315.944 357 269 357C259.798 357 249.841 352.807 239.327 344.568C228.881 336.382 219.048 325.097 210.44 313.205C201.892 301.395 194.914 289.497 190.058 280.5C188.279 277.203 186.796 274.319 185.638 272C186.796 269.681 188.279 266.797 190.058 263.5C194.914 254.503 201.892 242.605 210.44 230.795C219.048 218.903 228.881 207.618 239.327 199.432C249.841 191.193 259.798 187 269 187C315.944 187 354 225.056 354 272Z" stroke="#6821FF" stroke-width="30"/>
<path d="M15 272C15 225.056 53.0558 187 100 187C109.202 187 119.159 191.193 129.673 199.432C140.119 207.618 149.952 218.903 158.56 230.795C167.108 242.605 174.086 254.503 178.942 263.5C180.721 266.797 182.204 269.681 183.362 272C182.204 274.319 180.721 277.203 178.942 280.5C174.086 289.497 167.108 301.395 158.56 313.205C149.952 325.097 140.119 336.382 129.673 344.568C119.159 352.807 109.202 357 100 357C53.0558 357 15 318.944 15 272Z" stroke="white" stroke-width="30"/>
<path d="M15 100C15 53.0558 53.0558 15 100 15C109.202 15 119.159 19.1931 129.673 27.4318C140.119 35.6177 149.952 46.9033 158.56 58.7954C167.108 70.6047 174.086 82.5033 178.942 91.4998C180.721 94.7967 182.204 97.6811 183.362 100C182.204 102.319 180.721 105.203 178.942 108.5C174.086 117.497 167.108 129.395 158.56 141.205C149.952 153.097 140.119 164.382 129.673 172.568C119.159 180.807 109.202 185 100 185C53.0558 185 15 146.944 15 100Z" stroke="#6821FF" stroke-width="30"/>
</svg>
